<?xml version="1.0" encoding="utf-8"?>
<!-- Svg Vector Icons : http://www.onlinewebfonts.com/icon -->
<!DOCTYPE svg PUBLIC "-//W3C//DTD SVG 1.1//EN" "http://www.w3.org/Graphics/SVG/1.1/DTD/svg11.dtd">
<svg version="1.1" xmlns="http://www.w3.org/2000/svg" xmlns:xlink="http://www.w3.org/1999/xlink" x="0px" y="0px" viewBox="0 0 1000 1000" enable-background="new 0 0 1000 1000" xml:space="preserve">
<metadata> Svg Vector Icons : http://www.onlinewebfonts.com/icon </metadata>
<g><g><g><path d="M900.1,410.1H589.9V99.9c0-49.6-40.3-89.9-89.9-89.9c-49.6,0-89.9,40.3-89.9,89.9v310.3H99.9C50.3,410.1,10,450.5,10,500c0,49.5,40.3,89.9,89.9,89.9h310.2v310.3c0,49.6,40.3,89.9,89.9,89.9c49.6,0,89.9-40.3,89.9-89.9V589.9h310.2c49.6,0,89.9-40.3,89.9-89.9C990,450.5,949.7,410.1,900.1,410.1z"/></g></g><g></g><g></g><g></g><g></g><g></g><g></g><g></g><g></g><g></g><g></g><g></g><g></g><g></g><g></g><g></g></g>
</svg>